<mxfile host="app.diagrams.net" agent="Mozilla/5.0 (Windows NT 10.0; Win64; x64) AppleWebKit/537.36 (KHTML, like Gecko) Chrome/128.0.0.0 Safari/537.36" version="24.7.16">
  <diagram id="C2q5aGpdltxOjI891gPR" name="페이지-2">
    <mxGraphModel dx="1434" dy="746" grid="1" gridSize="10" guides="1" tooltips="1" connect="1" arrows="1" fold="1" page="1" pageScale="1" pageWidth="827" pageHeight="1169" math="0" shadow="0">
      <root>
        <mxCell id="0" />
        <mxCell id="1" parent="0" />
        <mxCell id="tgeYGfHM4mzRM6WEA6_v-18" value="" style="shape=ext;double=1;rounded=1;whiteSpace=wrap;html=1;dashed=1;strokeColor=#D4E1F5;fillColor=none;" vertex="1" parent="1">
          <mxGeometry x="20" y="470" width="800" height="360" as="geometry" />
        </mxCell>
        <mxCell id="tgeYGfHM4mzRM6WEA6_v-17" value="" style="endArrow=none;dashed=1;html=1;dashPattern=1 3;strokeWidth=2;rounded=0;exitX=1;exitY=0.5;exitDx=0;exitDy=0;entryX=0;entryY=0.5;entryDx=0;entryDy=0;" edge="1" parent="1" source="tgeYGfHM4mzRM6WEA6_v-4" target="JApWoBFBqSsrTjJg-cvU-4">
          <mxGeometry width="50" height="50" relative="1" as="geometry">
            <mxPoint x="250" y="360" as="sourcePoint" />
            <mxPoint x="300" y="310" as="targetPoint" />
            <Array as="points" />
          </mxGeometry>
        </mxCell>
        <mxCell id="JApWoBFBqSsrTjJg-cvU-1" value="&lt;font size=&quot;1&quot; color=&quot;#999999&quot;&gt;&lt;b style=&quot;font-size: 14px;&quot;&gt;User Interface&lt;/b&gt;&lt;/font&gt;" style="rounded=1;whiteSpace=wrap;html=1;strokeColor=#999999;strokeWidth=2;" vertex="1" parent="1">
          <mxGeometry x="370" y="310" width="120" height="60" as="geometry" />
        </mxCell>
        <mxCell id="JApWoBFBqSsrTjJg-cvU-2" value="&lt;font style=&quot;&quot; size=&quot;1&quot;&gt;&lt;b style=&quot;font-size: 13px;&quot;&gt;Payment Service&lt;/b&gt;&lt;/font&gt;" style="rounded=1;whiteSpace=wrap;html=1;strokeColor=#3355ff;strokeWidth=2;fontColor=#007FFF;" vertex="1" parent="1">
          <mxGeometry x="210" y="500" width="120" height="60" as="geometry" />
        </mxCell>
        <mxCell id="JApWoBFBqSsrTjJg-cvU-3" value="&lt;font style=&quot;font-size: 13px;&quot;&gt;&lt;b&gt;WebToon Management Service&lt;/b&gt;&lt;/font&gt;" style="rounded=1;whiteSpace=wrap;html=1;strokeColor=#3355ff;strokeWidth=2;fontColor=#007FFF;" vertex="1" parent="1">
          <mxGeometry x="370" y="500" width="120" height="60" as="geometry" />
        </mxCell>
        <mxCell id="JApWoBFBqSsrTjJg-cvU-4" value="&lt;b&gt;&lt;font style=&quot;font-size: 13px;&quot;&gt;History Service&lt;/font&gt;&lt;/b&gt;" style="rounded=1;whiteSpace=wrap;html=1;strokeColor=#3355ff;strokeWidth=2;fontColor=#007FFF;" vertex="1" parent="1">
          <mxGeometry x="690" y="500" width="120" height="60" as="geometry" />
        </mxCell>
        <mxCell id="JApWoBFBqSsrTjJg-cvU-5" value="&lt;font style=&quot;font-size: 13px;&quot;&gt;&lt;b&gt;Point Service&lt;/b&gt;&lt;/font&gt;" style="rounded=1;whiteSpace=wrap;html=1;strokeColor=#3355ff;strokeWidth=2;fontColor=#007FFF;" vertex="1" parent="1">
          <mxGeometry x="530" y="500" width="120" height="60" as="geometry" />
        </mxCell>
        <mxCell id="JApWoBFBqSsrTjJg-cvU-7" value="" style="shape=flexArrow;endArrow=classic;html=1;rounded=0;width=7;endSize=5;" edge="1" parent="1">
          <mxGeometry width="50" height="50" relative="1" as="geometry">
            <mxPoint x="250" y="640" as="sourcePoint" />
            <mxPoint x="250" y="570" as="targetPoint" />
            <Array as="points">
              <mxPoint x="250" y="600" />
            </Array>
          </mxGeometry>
        </mxCell>
        <mxCell id="JApWoBFBqSsrTjJg-cvU-8" value="" style="shape=flexArrow;endArrow=classic;html=1;rounded=0;width=7;endSize=5;" edge="1" parent="1">
          <mxGeometry width="50" height="50" relative="1" as="geometry">
            <mxPoint x="290" y="570" as="sourcePoint" />
            <mxPoint x="290" y="640" as="targetPoint" />
            <Array as="points">
              <mxPoint x="290" y="610" />
            </Array>
          </mxGeometry>
        </mxCell>
        <mxCell id="JApWoBFBqSsrTjJg-cvU-11" value="" style="shape=flexArrow;endArrow=classic;html=1;rounded=0;width=7;endSize=5;" edge="1" parent="1">
          <mxGeometry width="50" height="50" relative="1" as="geometry">
            <mxPoint x="410" y="640" as="sourcePoint" />
            <mxPoint x="410" y="570" as="targetPoint" />
            <Array as="points">
              <mxPoint x="410" y="600" />
            </Array>
          </mxGeometry>
        </mxCell>
        <mxCell id="JApWoBFBqSsrTjJg-cvU-12" value="" style="shape=flexArrow;endArrow=classic;html=1;rounded=0;width=7;endSize=5;" edge="1" parent="1">
          <mxGeometry width="50" height="50" relative="1" as="geometry">
            <mxPoint x="450" y="570" as="sourcePoint" />
            <mxPoint x="450" y="640" as="targetPoint" />
            <Array as="points">
              <mxPoint x="450" y="610" />
            </Array>
          </mxGeometry>
        </mxCell>
        <mxCell id="JApWoBFBqSsrTjJg-cvU-15" value="" style="shape=flexArrow;endArrow=classic;html=1;rounded=0;width=7;endSize=5;" edge="1" parent="1">
          <mxGeometry width="50" height="50" relative="1" as="geometry">
            <mxPoint x="570" y="640" as="sourcePoint" />
            <mxPoint x="570" y="570" as="targetPoint" />
            <Array as="points">
              <mxPoint x="570" y="600" />
            </Array>
          </mxGeometry>
        </mxCell>
        <mxCell id="JApWoBFBqSsrTjJg-cvU-16" value="" style="shape=flexArrow;endArrow=classic;html=1;rounded=0;width=7;endSize=5;" edge="1" parent="1">
          <mxGeometry width="50" height="50" relative="1" as="geometry">
            <mxPoint x="610" y="570" as="sourcePoint" />
            <mxPoint x="610" y="640" as="targetPoint" />
            <Array as="points">
              <mxPoint x="610" y="610" />
            </Array>
          </mxGeometry>
        </mxCell>
        <mxCell id="JApWoBFBqSsrTjJg-cvU-19" value="" style="shape=flexArrow;endArrow=classic;html=1;rounded=0;width=7;endSize=5;" edge="1" parent="1">
          <mxGeometry width="50" height="50" relative="1" as="geometry">
            <mxPoint x="730" y="640" as="sourcePoint" />
            <mxPoint x="730" y="570" as="targetPoint" />
            <Array as="points">
              <mxPoint x="730" y="600" />
            </Array>
          </mxGeometry>
        </mxCell>
        <mxCell id="JApWoBFBqSsrTjJg-cvU-20" value="" style="shape=flexArrow;endArrow=classic;html=1;rounded=0;width=7;endSize=5;" edge="1" parent="1">
          <mxGeometry width="50" height="50" relative="1" as="geometry">
            <mxPoint x="770" y="570" as="sourcePoint" />
            <mxPoint x="770" y="640" as="targetPoint" />
            <Array as="points">
              <mxPoint x="770" y="610" />
            </Array>
          </mxGeometry>
        </mxCell>
        <mxCell id="JApWoBFBqSsrTjJg-cvU-22" value="" style="endArrow=classic;html=1;rounded=0;exitX=0.25;exitY=1;exitDx=0;exitDy=0;strokeWidth=2;strokeColor=#999999;entryX=0.575;entryY=-0.033;entryDx=0;entryDy=0;entryPerimeter=0;" edge="1" parent="1" source="JApWoBFBqSsrTjJg-cvU-1" target="tgeYGfHM4mzRM6WEA6_v-4">
          <mxGeometry width="50" height="50" relative="1" as="geometry">
            <mxPoint x="410" y="380" as="sourcePoint" />
            <mxPoint x="150" y="490" as="targetPoint" />
          </mxGeometry>
        </mxCell>
        <mxCell id="JApWoBFBqSsrTjJg-cvU-23" value="" style="endArrow=classic;html=1;rounded=0;exitX=0.25;exitY=1;exitDx=0;exitDy=0;strokeWidth=2;strokeColor=#999999;entryX=0.5;entryY=0;entryDx=0;entryDy=0;" edge="1" parent="1" target="JApWoBFBqSsrTjJg-cvU-4">
          <mxGeometry width="50" height="50" relative="1" as="geometry">
            <mxPoint x="470" y="370" as="sourcePoint" />
            <mxPoint x="670" y="480" as="targetPoint" />
          </mxGeometry>
        </mxCell>
        <mxCell id="JApWoBFBqSsrTjJg-cvU-24" value="" style="endArrow=classic;html=1;rounded=0;exitX=0.375;exitY=1.033;exitDx=0;exitDy=0;strokeWidth=2;strokeColor=#999999;exitPerimeter=0;entryX=0.5;entryY=0;entryDx=0;entryDy=0;" edge="1" parent="1" source="JApWoBFBqSsrTjJg-cvU-1" target="JApWoBFBqSsrTjJg-cvU-2">
          <mxGeometry width="50" height="50" relative="1" as="geometry">
            <mxPoint x="410" y="380" as="sourcePoint" />
            <mxPoint x="350" y="480" as="targetPoint" />
          </mxGeometry>
        </mxCell>
        <mxCell id="JApWoBFBqSsrTjJg-cvU-25" value="" style="endArrow=classic;html=1;rounded=0;exitX=0.642;exitY=1.033;exitDx=0;exitDy=0;strokeWidth=2;strokeColor=#999999;exitPerimeter=0;entryX=0.5;entryY=0;entryDx=0;entryDy=0;" edge="1" parent="1" source="JApWoBFBqSsrTjJg-cvU-1" target="JApWoBFBqSsrTjJg-cvU-5">
          <mxGeometry width="50" height="50" relative="1" as="geometry">
            <mxPoint x="463" y="383" as="sourcePoint" />
            <mxPoint x="510" y="480" as="targetPoint" />
          </mxGeometry>
        </mxCell>
        <mxCell id="tgeYGfHM4mzRM6WEA6_v-2" value="caching storage(NoSQL)" style="text;whiteSpace=wrap;fontSize=14;" vertex="1" parent="1">
          <mxGeometry x="370" y="800" width="160" height="40" as="geometry" />
        </mxCell>
        <mxCell id="tgeYGfHM4mzRM6WEA6_v-3" value="" style="shape=image;verticalLabelPosition=bottom;labelBackgroundColor=default;verticalAlign=top;aspect=fixed;imageAspect=0;image=data:image/png,iVBORw0KGgoAAAANSUhEUgAAAa4AAAB1CAMAAAAhpfXwAAABJlBMVEX///+RJiZjZGbGMCtgYWOZmpv5+fmaKSjz8/Pv7/BiGxyKiozFMCuEhofGLildXmC6ADGQIiKhoaO5AC1naGq8Lir48fHj4+Pq19eJAAD56O6cPDy8ADfFKCKbKCdub3GyLCm9AD24ACjMzc3WboylKii9ADyqKyjCDkzEJB7AAEV7fH65LiqRkpN9ISHdiKHcgJ7TY4T01+G4uLmMExPy0Nvvw9HIM2Hnrb/emKna2tvMR0P34uK2trfjnJrExMWZNTXMRG367OvJPDjWbmtrHR3vxsXFIFbRXFnchILjoJ7svbzfjozuxcTmqafYdnOya2ujS0u8fn7LnZ3gk6rPUXblpbjtwL7QVVHCFw7UZ2OwPz6qWVnky8vEkpKjDQfVsLC2ABo2Huh0AAAYTUlEQVR4nO1dDVfaSrcGhQiHDwPB4MEoIogYpAJKQhHKQX2NVk/tacFab+3t+///xN0zIckkmQkfgh56edbqqoVJMs6T/b1n6vMtscQSSyyxxBJLLPEvAJdutUK2T8KtVviNJrPECKST5VS2kufMD0InkWw21lkS9m9EOhIIrATWsyfGB1xyJYAQDHldtsSbgEuuryAEyq3hJ93Aio7um05sJhDFt57BjJEuG+wMxYsL6vytrFcWWrzEzU83l9fXlzef2tzo0YuCfGrIViCp/1ah2JC/QGRxrdf5t7vr6PYQF5cfN38Xxiy6gr8LXeLVzVl8ezseX8WIw88X97fnbz2tmeC3o6v98dqiykB8+/DsbvOtpzYDuOjiKgtsu7jby/jhtoOroYwdHj7dLrzn4aLL1xnSFegsmsJv30V1rrbpjG0fxm+u3nqSL4ObrnAZ87VeTr/tzCbE+e3j90OdpfjNpfEj+tch8TMoxU+LbMXcdEHgvLK+vhJreV737wJ3dR+1lGD8Qmx/PPsO/0Yq8OLm27UlbPBJ9P7vhVWKFLp8oXwymV8gP6P98dGu/g4/gH/47R64ery7En1Xds8DPMXHD+23nvR0oNG1UDi/vb9wehfxC8xG++MzFqP7bbffEb1cSNd+sekSN+8eKZ5g/PsdMai9SnE8wIo93m0unFJcZLran57ih84QC+m6i6dbYtiH764xQx8k/vRpwZTiwtIlXt24lKDurF87OHCZNnL0xc3VIonYgtIFnh/hnxNGiy4vz3dn9OgZufmz8Tu4cNqWVuBC4XSakmjgQmmE8Hir7RxNpYsLh+kZjcmeNS+c315GKVyhxT+7+3R71W6fuyRGvL2O0q7Afsfqi/0OLl8plyMnxqqFWp1gJVYuxzr24DWc7wQj5SwgVkl20yOWMdwaji7D6Dy+E4UurguPrnRdhIVa5rOCnTdz9LmruzOGbsPqDX13cXZ9eX+nM3B+vvn3pw8390+PF+Q451Vndy9RitxJFlV0U3pJN31SyaZwiTewUrH44lqdWFYv/WKkysEuexVhdIQYvZKNJVschS6ugx+VStq5J+agX90Z9XLMA+BdRMkEbtzAqv0jYO0Qe4dXj2dRTCJ5VXTjYMMRi8W3oy/wO1pZnBcPrHRAJk5isE4rBsxlTCfLK9bH+vBUxC0Vw9Gdcso5OptsdV105fVhgVSeuDrUtc0Bf1/uvHKaSvz7hhAsWGEwX9ELhCiYIGcaPr6KUvA3h3YyEVm7+zvv/uPfjbpFbFq/o2NUMWKhVsW2zIFhLi/UdZKlf50N0haRQ8vtHrxSjrjoShoZecKYpZO0q1Mx1rsxD7Q/XsctSuDHs/sPYKieN9ubz1e3nz5cnsXtBm37CS66cKhNEKydtbWdd3/88ce7nY1Vh4iBW/lxChHjgsbqZE/KDpnI4rc+ncxSyNL5zLu0VJg12vrUrHdFzHqXyUW6QnszEGHUd2MOEL+RSUEgy53447BrT2rFw1vfh0OnYK0hYLr++OM//gOXiKGU4qSzs+hayTqXKItyr6wF1Ed0HXylg+zRLrrc5clwkP2sV8kEtx1+ePzwji4D5x9WiYRT/Kz9SJo5LFgkXYixnQ2nEt0+fJywzMJ5LBCqGqYjXssfsLrQMNKVkWR50pX0uOwVipibl4f23EX84pk9+Iyk9dEUnnh01+DKRhdSim4R+343kRvFpgvrwrCNrcA6gu2TLNl0Fh6HLQ+68iy1i2HzSOYA7s7ptse3v3mM/7Zq8xKHSvBof42EjS6kFDdW7Y/4PpEFo9IVQJyU86g3kDA5yH1PdpLBWIpgzOoaxG2e9tsE1gMBiuPAoosj2UZzCNhfjRPqbzAz3Hx3JZrOvNZSvHbm31dXN+xkuegCE+aka6LGDgpd4IclOyc4Oj1JWZ9mjcoUhMCEqxiomAFYN0XeJZAtVyoVFK6NS1faEi54W4Kdk06SdOrnTJd45oqIh+URBtruC7yl653Leq3Gj/58GV0QHucNI2F1cgZWgi1CyYY7lheZOnGNxsvdaYVDHBdOdyvOKIxF14k1LtbV00/hfNDgMDBnZSj+j3v1t2/Y0ZHoKm4ZEnZAs13u8AuRe+B/GV2BrLXDwFKFgVTHYedbFfOK8vACUnFmicAWAt/x6LJuQHjtXH5I97xb6cUtp6JCjuElS77a9/Rk4ip2NvYddLkiL0zW7o7/hXSVCdehZSqnlFsPhZNm2Kt/SagybPcIpCvkI5h0GVMJ2HttwidlZDgrcw68xK3Ezq6LsO3ozbNbwrjNuwtmNtEmYoguECzKCEzWy+iyOXqEn5GkeJshw7EIxPBqG21odvdDR5jki0mX4WkEYg5m0ifJ5NzTGkCX37/j0li47nHVNrcscOL53x+uaTUVlEMk4uuhiL17tx+lFC03Dvw6XkJXqkN8ZdqiIR9OhIzlxUYlbNm5rNvIhGOEphypDFPJN8jCY7oA+061BdHs98OLx6fL+/v7y6fHC/iX0+HHWcXD+MXjPZmKgmh5/4CiBOPgj/j9L6crECSXyXT0UowNPYb6w3sU8tZtaF2e+SzxFAZdHUKbvn4W3qALixhNcHQ4c/LbKP17cfZ08/Hbc9t36xBOSuUrPtSCL6bLrsRMXchuYe8YA0KELmTIohWTMenKE2HDSrbS6aZDr8iZRRcQdrDhXmcHfUigtqNn1/cfbkFX6vc4p/n2dmwcrPn9M6HLpgoJ/ZVMh+kYigxyDUJWiEsPjyy/hUlXKEZKemAlVY4ku63XSsWTdPn9a/tHjJow1o6Ip8u7T9+ez0Xyjbpk+PamsEFU5vfPhi6HhbfCqGyMgfJQHMB4mX6hnhh2w8y/eyShTsg4G1MWSJUrndaryJidLrpO1Nk6u8QC5Z7VLdO318na3fe7ML102cWCVE0sGGLZBeExxkYY4tAZTVeIkhFDjCXzryBiLrpAxOg6McrYEuQqeTnI2nGTNT1djmjH13WtHBsn5N5IxpPM+3lk5On5fzBkwflXTyh0Aag6MX64TdkSxN0fuocacJosA6efJ6oqE3Q5gquTieiySvsdxpPG2o6XrlBywjgBeTJvjSj+Q6MLRIySPMJ9g84utE8sVRiPH1G0IELizx+T9QAQytARLXXGZwtslyU7L6ILJUsY5eTkvBXirwSdLyRilG5qJGJkcXGToQrjq3QtCGSd/vVrwpfQoivlSCWML13r4LrPSLpQjjCSWqcwFqCmVmaK561TFmHubMeqYw+XSPcKIcqia0HA1teJ22vYdBG2a90TuCw/G9ulf54PllfWXUoxwIrWZ4fzn3+x+KK7HfH44cWNXnD+RMshxlkmC78BxqUTgE2X5Rlmg0kv4I5DwjNkBNVjeIbmpNLdZDnrpMzpC80Dmz8YiguB4XYcPt2e+54pqjDKMlmIrCPclGhTp2OATZeVMiy3fBwTxmgzCn5B3EUinM53KmV7y+Gcy8m+9t1jnOFvGxJBI2z7+8Xdk0sVet1of8NUpx8nmiGbLiurMY4WsrIaDONlJQ3HP6gBSxlRuI7M1XpxH1eRbxdf3WALBSMUA7djfLLgFkTX1LS9Gk66rAR5YJwepKSVM6R2ixLZk0nO1eDSnbIpXa4pzhR3Zq/GCBFjp6cMeJgsZ1wwba+Gay2s1otxxGsGGXk0HcqdWzFWrDFT2Ho14qsedoeV7TC49jRZjnbejWmzGi660uYyjWPkQ571LlsfB5OudCeYPHFLmpVKnKdv6OzV8PLqsNtBD7M8BDOx72L5aG1mdHFW/YlodyIQCpMFDrKa7OTLllxi0tUto261mIvsV6LL3atBzcmagrJLETEvLegSSSyGM6PL1yoTfLm+DXcisVjScgPJtrOyvRm7ZW8uZdBl7IXJOo4PJbieqzKk9WpEjzxEbO3AYcU2XOURglzGuzA7ujgyDxWzb+jiWhGcqCcqmkQxOJBNWtXgsGOvBIsuw1kJpCrEs7hW0LKh83Q1jF4Nt8CMCMWwUozTalm2YY67GjpzdnQR1gsxEDT3THLhVrJMFP6Ho22slJN5VNVMtzqR8foMOethgWyl0wpDUBdCD7IunKsjP8zIUwrJ3jrxYPdoY+Nol00qaEEXWZbMzpAucA5Jm5ONJbt5QDcZMXtzSS+kS7a4B1ay5UgkMn4Xr72WnMpGgsGgowmYlY6cCawCilsWop5uhyfc9Ns9x1nS5eh6RwV5wArR+U4Wj7lkyjE8MEGPvHnWK3kxefmck1C2Xg13RtczFGOT5do56bzPLOkavafE1kjjsT1rNF0QuY24es498vZeDTL1YKgwD51IhavwQgkOZkqXvaGTsvS2DUPj8cVuXKOXuszL5t10nXAu9otEzOW400Pv2dLlvR/StX0ynHzJ7slu2eNRr9B07VxKmk70ynbYL3WQNeNejSxjOcId5t5kCGmdvlqINZrwMdknXaeDDAELBOa+N5naq7HmTkR4hcIGXM5KfIMhl6cTVv+Jnf+MEVw+Qt35j4Ir2ugYZTQEaB3T8zNsEGXnP9qtQrs669wBM3uwejUm14lgslxWj85w4vTHhIfYmOdqeBhyfQ+IcwWDjP6/cMc5OgBRWNp4MSwHj3quhuNsD+NRk/1SU4HZq+GOnT0ywG4fha0/E/6fE0eSXXxqzYhOiHS3Qp5as5KKeTVronNnbKfW4N1e4SD+jHBO6KfWhLvBsnVqDWozfJ2+UN8v/ymLA7dOpGeA3dbOK+X7zzQnmNvPhGIBlQphID7lKdgZ9d84cemTYARGw51h8PDeoU4sWyYFhevCmIjzsAd0dT4ZjJWHJ0q93m6U8y9/sZaWUuVyOw87u86OqaiHnYNX4Ol2iheRC499iBrqjB93nwEebR8ccj7J49H46lc+YL79dMDsraGk1ONxMhTbP3LaOI9AbQ2d2RDf/v74O/wXAW+D9uXhtnch2Z2egvEH+zs7+87k/IjGGlNnbl8s4kG9/wZcDfeveoZW1CoXZRuXV6+GjfTJiv9LGBCvrRZ3r9CKkmB3waPo4lCp0f9d0jUV7OdqsMJajH3GViJTC3pUKe3CubE/WVZjCQPi1sbYq+6xvdJLlTppRg3ZS7qmg7iVcDZreOpEak+vd3uhkyw0dknXdEA5Q2cT4MieXsfo8RtrzCh7Sdd00FO8zhzSiJ5e61QHz85ER96RHLukazqYGXlXTtdbxA6ONgBHHg04jgyWXWSXdE0HooCy40zTele51tY8KipMLbik60Ww1bvWXHX76ZprXMl8VyllSdd0cJYnXcn1yZtrHM4jtXt+Sdd0cFeT1xyOvedmBQpZjtCMTveSrulALf47C8Pe+xxsVDvNH/3ChH+Z4p0K9HM13MEVcyM/SZZTkbKigcSftO3JmUzG7ODgxCGmL9HarkQ7Xuf3H1Nxr1NIRvjCqiW7OtDMwwjpcLgpEGUxT2rYorDFqXt7e7xWaKJ/9PkhhFx9xPybgwztY7EnyWqhqX9X13hJknjVPlLpNfDIiZfMDqVW4iWtOmqeM4L4mXlOgyuny3Y7XH0CzKFAFvWkBjFXVLVSjpfQ8hckeYjSqGWoCU3ax5lSUS4KfKmPnlVXZTknyw66jvfeo7+Ul4nGg8TLmpbjtVfii/vqcbCGU8TobodrGNPWJRL/fKWbLVHmfaLY6Gv8gPMV+L6hDkdNv8Yz6Mo1lH6vyGPhE8WqUHXea0jXy5DRpGoG5j3gqy+/2Xg4//kP8+gad07XVdVyRlnMpH4ikfj8i7X+oizgv+tasQF0PVjf1EFnKe8fYNkb7x+G73BGUTL4r2ZPqipYQOCjuiUoIF0wQGxqQg1/WN07Nm6nNNA3ilLjC4oi+hp4RmJDaeCBcF+uPvzZl2ke95FCzTR8XKNZx1PRH288pyFpWGYVGdOVaeiTyDQ4fEEjMxzPWZP2Nermj9Ph/NcPP5MxVykZ/f8ZFp2u8gjLv0j89fmZrXiQdGHU9po2usSB2jiWBb5X78uCUEILJfa1XE59z/mqfDGXyxUlxSe+V+VcqWCugU4XLE1Jlz6DLrEKWrKn+PpFfKXw0JDRF8pALso1eBfqUiFTK+VKVUSiovKCIGmKryo3C7KkNQcyfl24WrFh0qWraw4T0+zBJNBtjuWHKlzQ1wb4Ny7kFF+mCpPWjjkQyIGiFou1lxhN7vnLX2wRc6aUohu7+zuA/V1HeYRZ30wktn56xloGXRkVFr/AW3oqo8oDSe3DH0k9LvA90ScWhFJtIEt98DMGWk4dDOq+qlTsDUCRGmtg0OXrC3jFDLpqQmkwkOW6AlcW4cpGc68GvJSkXkEVwLgpe4OBoPVKxSamund8rMKrU5M0XlX5Qk0ooJsoRdl4L8Qerxoi7+tLkjpQJU0E46tJWk/qaUX0etVLcp0b8HJvUBKOffWcXCr2SqUXiBdC++c/TCPmygDHV6PR6Gp8zJRV4pRlsgi6JPRXvcar6LdVexhgeTJqEbkfSk7qgZ6ScxnfA6/By/1QhB/hRZeQICq50oOI1tfQUiZdGQGvy5Cuhz24lOtjv+BYQO/Eg1BDBuhYhAfBGEWQpV4dXFMgccDX4NL3AqILptAUqo0ij25W0FnDqPd4vjRoYo8mVwTPpq7CfQsSzFYRClUejXwPz+jvqaARmzkhU5eLuQex91K6YMl+fU5Mdp4XyR/zPLzTU7bJIugq1pX+QBZKDeQZSnsYQgOJG3Lp6nIOKSA114AXGuu3gYCI0l2NGt+Hldd42VBSJl1cCccCOl3ckE88G93VQHQ9CFgqFUkVG0IOjVfkHtfIDVnF0pXxiSBFNaGKpmI+Bt3roVfc41UF3RC+bKoSVg9wLVwAkgTvGCgMUQU5yxyXBE2syxLMpdGcRbC2+ZPtJ9KPzBuqR4/z8L6Mc2aXKOdyPJgibH4KfLWBUUfKMIcIqet+uFpsNGTduvfR0ul0ZVSt3lQFyW27fJyGadbpauyp1hN1ut6DpNQw8b4MiG5DkNBd6yVVfNBlCNPFDx2VOi9lfFVgmARXB38WpLYnNBSQNWS7CoajiG6NXoM6SFtfE2SQ4nru5YJlAdyOSUUszuyBQlpwvPOEgK5BrScVC+ilI10NsF1ovS26FKmHX8y+gNZQp0sr9YrCgHjnTbpE3c7odD2Y/qGPpKsn6TIny0AXZreuaZkqvj+Qg+gy5gPiBTGC4nMggxx5NdfL8T38XQFJO0KTV7HoNwRN5XMFJK71nDrTBIsIbgeTMMrZNcyTGk4TP36NmxwUczI4TQ8lqeYbRdfw19UD5KF0FSW1SS6CSZci4NFMuvpA10DXrroyLOHLga5jLL0Ouup8qSANrJtUq7pOA2Mn9mASD/okTLpETWiiWL9ezBUHOsuzpgvQ/urpdlg6EZxEpsnyf6b8RyosgO1CfyklpEY86cpo+O1WZEyIbrsKejjsU4y3w6ALDJ0uI0NlqKEZiQX0D4uuqq72BsjV0NUloqvJ9/ADbHSBGSsSwgXRoh6lQxDnO+ZV7COCT2/SBTyWJLi7qPKYWFGZB13Y7fB76cQo9g7ZjjuYrImKJIYjr6DVgN9Wz2mcg9vuoAuiIKGXESEmwi+/TlejJPczYr0gGLmFYZgMtgQZOpzVQAnkHj+oi/XanspZdFVhAcFVy1T5EnLke/hyoEvUpILSrBUl5GqYdIH71yNW+5jXH1yUwZPQivAQkMoaQVdGymFV2xS0ZkZsDP6rzIUuH3I72DrRv7MPYJVVUGJwwhKJmPuv/kN1bwCeYVHSIdftdGnwu2d6Qk7jBT3OHCahmrIgyfxeifAMB4UajELeXV2TICZGDmZGE3hZwt7nkC6s8h4kviQLSGpMuhB1EJbzggQxICFdvpJky3oVeIHP8UIO0aOU8N2xZ2jQBdeqWF8e80IRZqhm6kVtTsUB8ZeHn8gE+BeTHo4M7lVv6LRltAIs3xA8+Ak1zJOoYnesgIWlXwJTpQ/vD53qerUklY5NlwuUoABAnpgtIy/2IX7VhzXxW69gv1MZFGXsVmZwksMnDpBrX6+qvYf34Hv0zdcA+Q72xVZqslQaJuQzx5r+80PJSlPtNa2BKBUz/E3mg+fPpxMxhqKsiQ/bnQcySlOZQ5ZcI9OZ/0ace4ViLrL8X6b4b8cXB4owL002O4DbMZaIjZFrWnQM9vqjB709nr+MEjHP8shvg4I2w4zEPNH++iPBzNmj8sgXj/LIbwNxQdjyYZ3IKLIkEluTRVlLvAo2f265CUMV/d/av1hgnP/6cWprnkqc/vj9TdYCg3v+kjjVZSyBE4NvPaElRmDz54+txOmfia3PX5cmaxHAnW8+P2+e/z/wBZdYYoklllhiiSV+L/wfBbCHnPr5OK4AAAAASUVORK5CYII=;" vertex="1" parent="1">
          <mxGeometry x="170" y="640.95" width="547.78" height="149.05" as="geometry" />
        </mxCell>
        <mxCell id="tgeYGfHM4mzRM6WEA6_v-4" value="&lt;font style=&quot;&quot; size=&quot;1&quot;&gt;&lt;b style=&quot;font-size: 13px;&quot;&gt;Payment Service&lt;/b&gt;&lt;/font&gt;" style="rounded=1;whiteSpace=wrap;html=1;strokeColor=#3355ff;strokeWidth=2;fontColor=#007FFF;" vertex="1" parent="1">
          <mxGeometry x="40" y="500" width="120" height="60" as="geometry" />
        </mxCell>
        <mxCell id="tgeYGfHM4mzRM6WEA6_v-5" value="" style="shape=flexArrow;endArrow=classic;html=1;rounded=0;width=7;endSize=5;" edge="1" parent="1">
          <mxGeometry width="50" height="50" relative="1" as="geometry">
            <mxPoint x="80" y="640" as="sourcePoint" />
            <mxPoint x="80" y="570" as="targetPoint" />
            <Array as="points">
              <mxPoint x="80" y="600" />
            </Array>
          </mxGeometry>
        </mxCell>
        <mxCell id="tgeYGfHM4mzRM6WEA6_v-6" value="" style="shape=flexArrow;endArrow=classic;html=1;rounded=0;width=7;endSize=5;" edge="1" parent="1">
          <mxGeometry width="50" height="50" relative="1" as="geometry">
            <mxPoint x="120" y="570" as="sourcePoint" />
            <mxPoint x="120" y="640" as="targetPoint" />
            <Array as="points">
              <mxPoint x="120" y="610" />
            </Array>
          </mxGeometry>
        </mxCell>
        <mxCell id="tgeYGfHM4mzRM6WEA6_v-9" value="" style="endArrow=classic;html=1;rounded=0;exitX=0.642;exitY=1.033;exitDx=0;exitDy=0;strokeWidth=2;strokeColor=#999999;exitPerimeter=0;entryX=0.45;entryY=0.033;entryDx=0;entryDy=0;entryPerimeter=0;" edge="1" parent="1" target="JApWoBFBqSsrTjJg-cvU-3">
          <mxGeometry width="50" height="50" relative="1" as="geometry">
            <mxPoint x="425" y="370" as="sourcePoint" />
            <mxPoint x="568" y="498" as="targetPoint" />
          </mxGeometry>
        </mxCell>
        <mxCell id="tgeYGfHM4mzRM6WEA6_v-10" value="&lt;font size=&quot;1&quot;&gt;&lt;b style=&quot;font-size: 14px;&quot;&gt;Manager Interface&lt;/b&gt;&lt;/font&gt;" style="rounded=1;whiteSpace=wrap;html=1;strokeColor=#9673a6;strokeWidth=2;fillColor=#e1d5e7;fontColor=#FFFFFF;" vertex="1" parent="1">
          <mxGeometry x="540" y="310" width="120" height="60" as="geometry" />
        </mxCell>
        <mxCell id="tgeYGfHM4mzRM6WEA6_v-11" value="" style="endArrow=classic;html=1;rounded=0;exitX=0.642;exitY=1.033;exitDx=0;exitDy=0;strokeWidth=2;strokeColor=#FFCCFF;exitPerimeter=0;entryX=0.75;entryY=0;entryDx=0;entryDy=0;" edge="1" parent="1" target="JApWoBFBqSsrTjJg-cvU-3">
          <mxGeometry width="50" height="50" relative="1" as="geometry">
            <mxPoint x="595" y="370" as="sourcePoint" />
            <mxPoint x="594" y="502" as="targetPoint" />
          </mxGeometry>
        </mxCell>
        <mxCell id="tgeYGfHM4mzRM6WEA6_v-12" value="" style="shape=image;verticalLabelPosition=bottom;labelBackgroundColor=default;verticalAlign=top;aspect=fixed;imageAspect=0;image=data:image/png,iVBORw0KGgoAAAANSUhEUgAAAUoAAACZCAMAAAB+KoMCAAABI1BMVEX///9mOno+Rs/08Pb6+Ps/SMzs5u95OpNcKXIuPMorOcolMsjm3OpyLY1xK41gMHV8QJXWx925n8agerF/RpfFr8/d0OPJtdKsjbrBssiribp/XI+OXqOztefKvtBYIW+0or2hf7IYKMecn+EvM7U3PcDg7O9sQn9gZtKRld6ija3D0+cvL6LYztz///iReNFohKuGUp2txt2Rd57L2+OWtsaVaqllVcyvm9nh4fZ1Xst3UoiaidR3fdgfQZpNPslAZJ6IaZa8v+rPvePKy+6/qt2Ii9za8P8lKZG5udpQd62hrMqyq+I8VZURH5Dk/v9KXL1eRsl5l7xZXtCDkM82TLwcHJ4vSpYQGbCVmcBRD2l2e8SFh7xTgaNYaLUAAI+Oo9qy3A6TAAANnUlEQVR4nO2d+3vSSBfHw0xCyIWS0BAQqVhaKm67tqwVSktbBXqz1e3Fuuq67v7/f8V7zkwCAQJBn/j2Eeb7A1Iy10/OnJlkTqIkCQkJCQkJCQkJCQkJhSr5Xamp/JOa8WuL5kpUkg4Ons5EU7aX85L0KPPb7z+7Xb+aaL6hqiqgfJxJpR4/otNTy27RUVVEmcqUn/1m/n/a+CsILExVLcuxEGUClCq/mULTLTiQ2uIoITXS/D6/MK9Cjo6llsAufZSc5pMwR2gyjqqVzfZRMpoz+oU5ll1UUU4OQCwHUTKaL58MpzazDqa2Vl3ImQ6g9GhG+IW5VnEpbdWzbjKNEEZRAh6gGZhW3CWAvpqnpZw0jpKxP4jysvOrwqqbXQVnuRSOktFMvPQHulvKmyr8MQkl0kw9XtApvUglREknowSVfS9o5yVmv1NQAsynD9edh9RMKFN9lLkZUGaePlx3HlICZWwSKGOTQBmbBMrYJFDGJoEyNgmUsUmgjE0CZWwSKGOTQBmbBMrYJFDGpp+AcmFvsiUjUWZSB/6dcUBJ09Nv/SZSmSdT6ptjFa3C8tS76KnMy8HWrJtezqrTrDKVehy6t7YIyqZVy6rnzPC9nUx5mIyJG2pW0SwBxHGUmXJioXcd5XxJtXDzy6UjKEPJuKsqJHdKdhJMdAjl8IbagiqZdVTLUdVGyRqgnEiGsYfUznJgHxzM99GiDuwR2cuAx+lHZ0SQwd1wSN1HmUqI4IyAaA6MzeIxQ4noICBkz1GmUm8WdMqeIrOAKA/C41vGRHN1mMcfJRY6IkNCaln4HAulQIYhZMwspJYfj0GjPMdIGXYDbPrJm4WYg8xsXVURZXlSiFVQyWxJVYuACGai6LnFLlpqGlGWYUE65zSTwBFmGAtRphJhIVZBMQ/qWFYBUD5LTA5v43ILKpatIsoUW03Nb+RlkpOBVaTqo8QLw1S4/VBY9mC0oFVUfZRT2IOnZWWXGj7K+V21MzIWXNsUbbjmHqBkNBOjcdAsCtiyHEwtLQVQ8ovJkdToM6Bop5GFa/qlAUp+CT9vNOlSGhaDjVwDsEjJYZQJHrkbHI08dXZ1WcIr9GGUyGcodQ5T11fzaI+jKPmV+VzFClIra2Ini+EoE8OxprKadR2wx2w4ysRwnG+uZOcc+DftSmEoGc0Z11i/gpIFQDIVJaj80kstA0LLnYYS+bzxUmdNyZ6OEvRlbib0mVBmfvNSz4Qy44PPujOgTAmUAuWoBMrYJFDGJoEyNgmUsUmgjE0CZWwSKGOTQBmbBMrYJFDGJoEyNgmUsUmgjE2AUoq+X/ldKMv9+5UzoMzMz/1KutTIp5PTUOJ2op9aXmrkpqMMbj7m1EK2Lk1BmUml5mjzkVpp1Vm2J6HMjLyrwYHUjfwklJnys2CAgZ1WVadgTkI5fYP4VxQG9KlOvZGUwnYcR43GLWKsYL2Ev4/tOI6mltlbiupWlo6hHD1HcyLckbUctV7MB/bBE5MCqGQv9ao9tA8+YcMLYxUcyyllC+nAPvgsoVy/qvqvCZI4yumvtGGxHJDaRzk9tb1sIc1+SMFcbTOGigX0cZQzGI27ivEZiDITHQbEAmM4ykxqLgf2qGjOQZRfZouMpPk6Rv5nZovYNwvMV5bnd2CPikoh8X8msHoahiA0NYX56/eQkyHLoaGFCyTwi/jIycFsEVOyvbyEoapfRDT/iLzoPx6Lnkk9m06TvVnQj0WfwYUujnjUmmrVB09IpCZPGuzdlTCt1wdPSIxEYy2qqN3AwEinlJeHn9sJjz9j7650nHo2OfwIlHgjqAtLQVgMsvDS8afJRheGtFBH622w+T/kabK5i6T8HhWXnBJcSU55xjH1ckDTXVIblk0nP+O4yO+wLNozPHlb7j95W5Cjn7z98vThuvOQEs+DxybxloLYJFDGJoEyNgmUsUmgjE0CZWwSKGOTQBmbBMrYJFDGJoEyNgmUsUmgjE0CZWyaCeWX70JZfvpw3XlIFfNRKDF8yr+Nbq/SqFu/i/smrOKSU2+YkzckhiNh3CW1ZNnyRJTzHyQ0RSZGBKmlrIqmNIoyM0qGYjSW6hTqYdtkIzGXCyj+ohcH/8uxIZQT4gpYNJZjNbLmMEoRV8DE3/yH7xQKhBRMJEPz/GVFViCkYD7DUX9M9nLa6r90EYbq9DeGmQVVHbx0MVVe1Jlmgmiuzv6j1oNyZhYy9rLKBni5LN65GCITVpnSzBH4NGtL0pMFn2mEhISEhISEhISEhISEhISEhISEhITmRJ3OxcbPKluWZ9n+ptCEqJvunU5nc8ba6MpsPWofHv69O0O6Me0dHt7CP93Dw8M/huo39I+RjRxXsteLzHVVM0CHt1H9sivGv2fTk5wYxhEvZgAAvl3iIf5D61CHymr4da+i/xXdA6oTor+NTjeubU17J0mmMZpdPla2fgDlScWIam5NJ9A7XV9/FZHQPH3+dTpKapAtTjIAYF/Td/A8EOMW8RHNwNr+gSPbRLuN7oGmKOT9n5HpxrVNyGtJOlbwM6gfRNnVyLvpKfZ0pQr232p/ikIZrW1SveTfAgD2CdkBtIoGZN2KUgV69EpDlFQj7yPMXJKailJVqti27hrX1w0JPsGsr/DzxXP4obX2GRBd3RFyfxloDXmNteM4wVRnXg5EedHWyDc2auxTjVTZAPILgnr+6CpeV+hVk5DrS/QTRLmHIzDS1xRCvrGT0T3EzH6V++zcgUy0p5UaIdXP4MvM51Bob+2SNxrbvknhJz/N+n+7gWo8gVEeeebTJD4AjhIS4ujY0xTOl7KWtDUtcijo5OiUN3GvAvasadrHXelYM6BP+zpkf1HR1muGfv4nbeqaASOsbzqA8u2eRraw/ZAK/WNTg7EHKBW9AsPmPfRmz9B0g+BBvyCprWtVQ1PIR6jCJBordEdqG2AcRuUfydYhh0Z06HfbYAP6/MxHqVQ/bPLpRK5Ba+DwkSzZhnZ/Z+g7bV2HbpjQkjP4ACOSm+gQdGNHMhVeTd8TwRDYGQPAUIINMB8Kxkq+XfT36cGPRbkfyLkDyT5Ca90VEPTnaOPFjbKOKAmcrBfQRe3u7h24xuotbSlk3Z9jtsGMiML/hFTrm14OQAkpXch2C90kR5syQH83KKgN+T5cEYW8RZOo3so9MJ1d95Qo1ysrm9Ix2KsMXX2/YUKhu3Lr1Ed5giXo+vVnPO86eZtMNtG2bV0hSu3u1tXR/cHJfQt8FMi0rZH7Tbl3s4PtwmpYG3m3+93A9ElD2Trj5wp6dM9GUxJPrW7cf/CmuBvyMcILArRdqdl3HG02XkdQbmGttELONzCBtjNACQpFib4S2njkuSQ48+cbfkFYxw47/FpygbQkY7ZL31d2dfhdhpav/2EbSvW/zcCrhNpgrdBB7XxDJmw0nGAeW+d2BG4bxkQTITGU4PT4uKWmX4028BVb/PzwrnoAACWUX+W8uzpWpmge/n6OSYIzet/pbRPPets6ud+QxlBiYS6c+0qlAqPPHyWIsqp4A3wcZRecDXpivVIBt/Fxwy/IQ3mCKCENFqpp+q2Pcs//CbDcELBC43owhyXXakSH7v1DNfQG0BrtL4bSN7DX4ATPJY7S1P1JOlgNV5ONw1EA6EEg6Tk3P7pyqgFN8t7rbcRcCjgIOEhFYUDaXuVhKKHO6nOmy35e8o4aCmtEKEro1I2iHLJMXyehvF9jxzcHKMk1++XDrkRrAAuc6tCy1wa7fIcWd8qSfR6gTMKXNlu1eCiVAcp+NVz7/oTcBwCDk/lK1wguScwaUXjKSJQwhA5PT0+bChtz3CYBzDEbGkMoacVrmOyvj9kM3jXY0gFRvhpG2cbDMMC5ISSlMJQwwLkJUBoY4HyEJGUKNbW6RPGXkVuvBvUS1ndWcB8lsyrWc4ZS1vgAp+B0/WoGbffADAFgMzgsufBstL++8M4C95HNiNUQNJ+tCU7Qr6FX/xuWEmAOMC7vYSwpAZTMiV+2WnsVf5DwdWVbY12F5aWfA6edyxYMVLBsdHdfW63O3XkoSmz89UWLrRS7YGgXvVcw7cBKqNU7/Pes++nvzZat+NCkpn7/uYUFw9wPHV6H1lzBeRyghCIUdj74tANNg4Z0jnf61VT8Bc2ext1oEMCfHCWeEKixra9/OGt1wJuwuQEW8ufTSMJyx2CeDxYPn3a3wfPgpdKnXaAKVwCGouuv/GUOWOM+rmtgbdFHqbOFUVPXYQTuYQ5dwQsRGVxjBZcz2IYT+AMvGc4HBbUNA1EamDvZ1FmhgJJiFlgMuYrOrjIAZQUPaYY/z93wtJqBLmbbaw2grOCSiDXxGCp7JXkrIq/FuBiiXjWGj9LGyS0AIGlon2D2wbQSPdb19xtt3nCNH0fmUy8J5auVFX7GYRm02VvxtIFrW7j27LKjVyv+pXzvtAY/X/j3EyA9zshJyHGJl8eQo4M55JWVi16tds1XG8mVO/geLKiHSx5cejGwnUMo9MMF9v+UZ5I7NfwJjnZOvS9ecztrNSyLN6f3HAr+dkGxAZeDJrHmUfhJ9lp8/d/GUDVcx2y6HAYgdXibXPZHDxver31/sAgUGtaJZ5Yzqtt3IkJjgvXnZXQqTxQuIn7gtsKCKAmTwqxDVr4xjOgbQ0JCQkJCQkJCQkJCQkJCQkJCQkLfp/8B82EmAxtucGoAAAAASUVORK5CYII=;imageBorder=#CC99FF;strokeWidth=4;" vertex="1" parent="1">
          <mxGeometry x="20" y="760" width="150.98" height="70" as="geometry" />
        </mxCell>
        <mxCell id="tgeYGfHM4mzRM6WEA6_v-13" value="" style="endArrow=none;dashed=1;html=1;dashPattern=1 3;strokeWidth=2;rounded=0;" edge="1" parent="1">
          <mxGeometry width="50" height="50" relative="1" as="geometry">
            <mxPoint x="390" y="610" as="sourcePoint" />
            <mxPoint x="440" y="560" as="targetPoint" />
          </mxGeometry>
        </mxCell>
        <mxCell id="tgeYGfHM4mzRM6WEA6_v-15" value="" style="endArrow=none;dashed=1;html=1;dashPattern=1 3;strokeWidth=2;rounded=0;" edge="1" parent="1">
          <mxGeometry width="50" height="50" relative="1" as="geometry">
            <mxPoint x="390" y="610" as="sourcePoint" />
            <mxPoint x="440" y="560" as="targetPoint" />
          </mxGeometry>
        </mxCell>
        <mxCell id="tgeYGfHM4mzRM6WEA6_v-16" value="" style="endArrow=none;dashed=1;html=1;dashPattern=1 3;strokeWidth=2;rounded=0;" edge="1" parent="1">
          <mxGeometry width="50" height="50" relative="1" as="geometry">
            <mxPoint x="390" y="610" as="sourcePoint" />
            <mxPoint x="440" y="560" as="targetPoint" />
          </mxGeometry>
        </mxCell>
      </root>
    </mxGraphModel>
  </diagram>
</mxfile>
